<svg width="174" height="26" xmlns="http://www.w3.org/2000/svg" xmlns:svg="http://www.w3.org/2000/svg">
 <g class="layer">
  <title>Layer 1</title>
  <path d="m20.14,26c2.76,0 5.04,-2.26 4.53,-4.97c-0.32,-1.7 -0.8,-3.37 -1.45,-4.98c-1.26,-3.15 -3.11,-6.02 -5.45,-8.43c-2.33,-2.42 -5.1,-4.33 -8.15,-5.64c-1.51,-0.65 -3.07,-1.14 -4.66,-1.47c-2.7,-0.56 -4.96,1.73 -4.96,4.49l0,16c0,2.76 2.24,5 5,5l15.14,0z" fill="#615DFF" id="svg_2"/>
  <g id="svg_3">
   <path d="m13.7,26c-2.76,0 -5.05,-2.26 -4.53,-4.97c0.32,-1.7 0.8,-3.37 1.44,-4.98c1.27,-3.15 3.12,-6.02 5.45,-8.43c2.34,-2.42 5.11,-4.33 8.16,-5.64c1.5,-0.65 3.06,-1.14 4.65,-1.47c2.71,-0.56 4.97,1.73 4.97,4.49l0,16c0,2.76 -2.24,5 -5,5l-15.14,0z" fill="#3DD9EB" id="svg_4"/>
  </g>
  <text fill="#000000" font-family="Serif" font-size="24" id="svg_6" stroke-width="0" text-anchor="middle" transform="matrix(9.63604 0 0 0.631542 -364.212 5.62091)" x="47.5" xml:space="preserve" y="7"/>
  <text fill="#000000" font-family="Serif" font-size="24" id="svg_7" stroke-width="0" text-anchor="middle" x="-388.5" xml:space="preserve" y="-38"/>
  <text fill="#000000" font-family="Serif" font-size="24" id="svg_8" stroke-width="0" text-anchor="middle" transform="matrix(1.27389 0 0 0.811407 -9.86874 7.14888)" x="70.55" xml:space="preserve" y="14">Styl-AI</text>
 </g>
</svg>